<svg width="22" height="22" viewBox="0 0 22 22" fill="none" xmlns="http://www.w3.org/2000/svg">
<path d="M6.04787 9.86534C7.42044 12.5247 9.43641 14.5407 12.0958 15.9132L14.1117 13.8973C14.3977 13.6113 14.7122 13.5398 15.0554 13.6828C16.0848 14.026 17.1714 14.1975 18.3152 14.1975C18.5726 14.1975 18.7871 14.2833 18.9586 14.4549C19.1302 14.6265 19.216 14.8409 19.216 15.0983V18.3152C19.216 18.5726 19.1302 18.7871 18.9586 18.9586C18.7871 19.1302 18.5726 19.216 18.3152 19.216C14.026 19.216 10.3515 17.7004 7.29177 14.6693C4.26067 11.6096 2.74512 7.93516 2.74512 3.64587C2.74512 3.38851 2.8309 3.17405 3.00247 3.00247C3.17405 2.8309 3.38851 2.74512 3.64587 2.74512H6.86284C7.12019 2.74512 7.33466 2.8309 7.50623 3.00247C7.6778 3.17405 7.76359 3.38851 7.76359 3.64587C7.76359 4.78968 7.93516 5.8763 8.2783 6.90573C8.39268 7.27747 8.32119 7.59202 8.06384 7.84937L6.04787 9.86534Z" fill="#FAFAFA"/>
</svg>
