<svg width="22" height="23" viewBox="0 0 22 23" fill="none" xmlns="http://www.w3.org/2000/svg">
<path d="M17.9999 8.49137C18.196 8.3698 18.3154 8.15547 18.3154 7.92474V7.65503C18.3154 7.13125 17.7391 6.81204 17.2951 7.08988L11.3343 10.8197C11.118 10.9551 10.8434 10.9551 10.627 10.8197L4.66628 7.08988C4.22226 6.81204 3.64598 7.13125 3.64598 7.65503V7.92474C3.64598 8.15547 3.76529 8.3698 3.96141 8.49137L10.6294 12.6248C10.8446 12.7581 11.1167 12.7581 11.3319 12.6248L17.9999 8.49137ZM18.3154 4.60706C18.8015 4.60706 19.2161 4.79292 19.5592 5.16466C19.931 5.5364 20.1169 5.96533 20.1169 6.45145V17.432C20.1169 17.9182 19.931 18.3471 19.5592 18.7188C19.2161 19.0906 18.8015 19.2764 18.3154 19.2764H3.64598C3.15986 19.2764 2.73094 19.0906 2.3592 18.7188C2.01605 18.3471 1.84448 17.9182 1.84448 17.432V6.45145C1.84448 5.96533 2.01605 5.5364 2.3592 5.16466C2.73094 4.79292 3.15986 4.60706 3.64598 4.60706H18.3154Z" fill="#FAFAFA"/>
</svg>
